<svg version="1.2" baseProfile="tiny-ps" xmlns="http://www.w3.org/2000/svg" viewBox="0 0 225 807">
	<defs>
		<linearGradient id="grd1" gradientUnits="userSpaceOnUse"  x1="124.411" y1="655.841" x2="38.728" y2="742.209">
			<stop offset="0" stop-color="#cc0000"  />
			<stop offset="1" stop-color="#ce5c00"  />
		</linearGradient>
	</defs>
	<style>
		tspan { white-space:pre }
		.shp0 { fill: url(#grd1) } 
		.shp1 { fill: #f57900 } 
		.shp2 { fill: #edd400 } 
	</style>
	<g id="g7677 copy">
		<path id="path7661" class="shp0" d="M101.37 459.42C137.26 441.03 141.51 460.58 163.04 465.74C184.67 470.98 140.39 807.28 140.39 807.28C140.39 807.28 -32.85 484.84 101.37 459.42Z" />
		<path id="path7671" class="shp1" d="M106.17 479.92C129.1 468.21 131.79 480.69 145.44 483.99C159.19 487.27 131.04 701.33 131.04 701.33C131.04 701.33 20.76 496.12 106.17 479.92Z" />
		<path id="path7675" class="shp2" d="M107.45 486.42C118.35 480.86 119.94 489.37 126.66 493.04C133.47 496.6 124.68 637.44 124.68 637.44C124.68 637.44 66.1 488.72 107.45 486.42L107.45 486.42Z" />
	</g>
</svg>